<?xml version="1.0" encoding="UTF-8"?>
<svg version="1.1" xmlns="http://www.w3.org/2000/svg" width="225" height="225">
<path d="M0 0 C74.25 0 148.5 0 225 0 C225 74.25 225 148.5 225 225 C150.75 225 76.5 225 0 225 C0 150.75 0 76.5 0 0 Z " fill="#007BFE" transform="translate(0,0)"/>
<path d="M0 0 C4.70253738 3.50385138 4.70253738 3.50385138 5.39453125 6.984375 C5.53891485 9.91482732 5.32063157 12.35873686 4 15 C0.62245984 16.68877008 -2.38944235 16.76755052 -6 16 C-8.5683592 14.68605465 -10.92569929 13.17599181 -13.33984375 11.59765625 C-17.62607235 9.02340148 -22.24224731 7.48204756 -27 6 C-27.60972656 5.80535156 -28.21945313 5.61070313 -28.84765625 5.41015625 C-42.31417103 2.843942 -56.4877024 5.69377018 -68 13 C-79.71014969 22.07319746 -88.29800019 33.51801087 -90.71484375 48.41796875 C-92.2786002 62.57746204 -89.27347113 76.22621417 -81 88 C-71.87910926 98.68184855 -61.07682052 105.83908457 -47 108 C-33.59960907 108.84357466 -23.40600011 107.42404251 -11.75 100.25 C-6.75281931 97.19798663 -3.80274412 95.94495562 2 97 C4 98 4 98 5 100 C5.70533643 105.46635731 5.70533643 105.46635731 5 108 C1.40564654 112.37335782 -2.63553097 114.70209086 -7.625 117.125 C-8.59759766 117.62580078 -8.59759766 117.62580078 -9.58984375 118.13671875 C-19.25800743 122.92386776 -28.64144392 124.54219751 -39.375 124.4375 C-40.47553711 124.42920166 -41.57607422 124.42090332 -42.70996094 124.41235352 C-50.82596933 124.24352035 -57.56564771 123.45641138 -65 120 C-66.09183594 119.50242188 -67.18367188 119.00484375 -68.30859375 118.4921875 C-75.94968501 114.69372595 -82.01957727 110.05235222 -88 104 C-88.70898438 103.31292969 -89.41796875 102.62585938 -90.1484375 101.91796875 C-102.71030487 88.94699842 -107.6713649 71.09581972 -107.47070312 53.41918945 C-106.82756474 35.5669679 -99.68989844 20.49697768 -87 8 C-86.278125 7.27941406 -85.55625 6.55882813 -84.8125 5.81640625 C-61.86498992 -15.86079523 -25.92475682 -17.07017438 0 0 Z " fill="#002CBA" transform="translate(139,56)"/>
<path d="M0 0 C4.25653198 3.45124215 4.25653198 3.45124215 4.75 7.1875 C4.3125 10.875 4.3125 10.875 2.1875 13.8125 C-0.6875 15.875 -0.6875 15.875 -3.5 16.4375 C-6.6875 15.875 -6.6875 15.875 -10.0625 13.875 C-16.63859823 10.32035231 -26.24885331 10.58614852 -33.32421875 12.640625 C-35.27434853 13.57668729 -36.94489375 14.59916328 -38.6875 15.875 C-39.574375 16.431875 -40.46125 16.98875 -41.375 17.5625 C-47.03900237 23.22650237 -49.78065759 30.08058451 -50 38 C-49.93331491 45.12577815 -47.66545817 50.69613865 -43.9375 56.6875 C-37.05828481 63.37562588 -30.26878627 65.22419125 -20.88110352 65.2578125 C-13.54162007 65.09899577 -8.97563394 63.02348347 -3.6640625 57.9375 C-0.38977742 54.40929077 1.58274868 51.37281654 3.3125 46.875 C2.42989502 46.89594727 1.54729004 46.91689453 0.63793945 46.93847656 C-2.65155569 47.00684095 -5.94029094 47.05688949 -9.23022461 47.09472656 C-10.65124457 47.11478421 -12.07218259 47.14203778 -13.49291992 47.17675781 C-15.54105895 47.22554011 -17.58810275 47.24802539 -19.63671875 47.265625 C-20.86737061 47.28657227 -22.09802246 47.30751953 -23.3659668 47.32910156 C-27.29482167 46.79197036 -28.91958728 45.6606042 -31.6875 42.875 C-32.3515625 40.65625 -32.3515625 40.65625 -32.3125 38.375 C-32.32539062 37.6221875 -32.33828125 36.869375 -32.3515625 36.09375 C-31.32750135 32.67218097 -29.70984005 31.74527069 -26.6875 29.875 C-23.50455451 29.31123281 -20.37743919 29.36141496 -17.15234375 29.4140625 C-15.77883507 29.41543716 -15.77883507 29.41543716 -14.37757874 29.4168396 C-12.44689736 29.42286755 -10.51622499 29.43858929 -8.58569336 29.46337891 C-5.63164809 29.49991777 -2.67885721 29.50439785 0.27539062 29.50390625 C2.15365666 29.51373691 4.03191422 29.52539368 5.91015625 29.5390625 C7.23370872 29.54240097 7.23370872 29.54240097 8.58399963 29.54580688 C9.40843063 29.55856659 10.23286163 29.57132629 11.08227539 29.58447266 C11.80443741 29.59209625 12.52659943 29.59971985 13.27064514 29.60757446 C15.68636553 29.92396587 17.25170623 30.57984865 19.3125 31.875 C22.65442312 36.88788468 21.88662596 42.67147363 20.84765625 48.46875 C17.58891144 60.65529862 9.79372529 71.24403314 -1.0625 77.75 C-11.58403459 83.0107673 -23.25452527 84.77847986 -34.75 81.8125 C-47.08521405 77.5001894 -56.52760691 70.33746753 -62.5625 58.6875 C-67.66828309 47.92250977 -68.64002914 35.80243591 -65.77734375 24.1796875 C-60.85491134 11.80238157 -52.21042574 2.45547333 -40.11328125 -3.125 C-27.28805052 -8.41205164 -11.83450013 -7.64072096 0 0 Z " fill="#F9FBFF" transform="translate(122.6875,74.125)"/>
<path d="M0 0 C3.06807302 0.63918188 4.69781656 1.39354258 6.77734375 3.75390625 C18.26803454 21.33870142 19.57067375 45.98434056 15.875 66.125 C13.71238964 75.96895755 10.91471836 86.91361656 3 93.625 C0 94.25 0 94.25 -3 93.625 C-5.9375 91.5625 -5.9375 91.5625 -8 88.625 C-8.23364584 82.9006769 -5.62118747 78.1036893 -3.25390625 72.98046875 C3.19751819 55.71637655 2.41782781 33.40391755 -5 16.625 C-5.54011719 15.54992187 -6.08023438 14.47484375 -6.63671875 13.3671875 C-8.1311218 10.36125357 -8.67455278 8.91344482 -8 5.625 C-5.53235541 2.35899981 -4.04381805 0.84246209 0 0 Z " fill="#4FBFFF" transform="translate(176,65.375)"/>
<path d="M0 0 C1.89453125 0.44140625 1.89453125 0.44140625 4.20703125 2.44140625 C9.43729725 11.73965691 11.27681122 21.66684741 11.20703125 32.25390625 C11.20074707 33.56548706 11.20074707 33.56548706 11.19433594 34.90356445 C11.01992459 44.93314468 9.34969613 57.98624137 1.89453125 65.44140625 C-5.03284305 66.11179731 -5.03284305 66.11179731 -8.60546875 63.87890625 C-10.70002139 60.47525821 -10.57393418 58.3899006 -10.10546875 54.44140625 C-9.15554313 52.08724276 -8.15594519 49.75245443 -7.10546875 47.44140625 C-4.69729504 36.44191013 -4.70394086 24.02706871 -9.19921875 13.671875 C-10.51465124 10.43432349 -10.66534781 7.87066547 -10.10546875 4.44140625 C-7.54528173 0.28110234 -4.62178224 -0.26581679 0 0 Z " fill="#4FBFFF" transform="translate(157.10546875,79.55859375)"/>
<path d="M0 0 C0 3 0 3 -1.53125 4.82421875 C-2.1809375 5.43910156 -2.830625 6.05398437 -3.5 6.6875 C-4.1496875 7.31011719 -4.799375 7.93273437 -5.46875 8.57421875 C-5.9740625 9.04472656 -6.479375 9.51523438 -7 10 C-7.66 9.67 -8.32 9.34 -9 9 C-6.21000549 5.51250686 -3.74764169 2.49842779 0 0 Z " fill="#1581FF" transform="translate(85,88)"/>
</svg>
