<?xml version="1.0" encoding="UTF-8"?>
<svg version="1.1" xmlns="http://www.w3.org/2000/svg" width="225" height="225">
<path d="M0 0 C74.25 0 148.5 0 225 0 C225 74.25 225 148.5 225 225 C150.75 225 76.5 225 0 225 C0 150.75 0 76.5 0 0 Z " fill="#01B463" transform="translate(0,0)"/>
<path d="M0 0 C-0.0825 1.155 -0.165 2.31 -0.25 3.5 C-0.19788696 8.40731102 0.83525479 12.18104389 4 16 C10.27196237 20.59633606 17.41925996 22.03439243 25 23 C26.31626692 26.61973402 27 29.09567131 27 33 C14.6319135 33.61583833 2.52784241 33.01212288 -7.41015625 24.62890625 C-10.98580905 20.96539958 -13.1636179 17.19556363 -13.625 12 C-13.42483016 7.72136963 -11.36611539 5.37856197 -8.5078125 2.34765625 C-5.70245398 -0.15972378 -3.65644842 -0.09622233 0 0 Z " fill="#F7FCF9" transform="translate(103,65)"/>
<path d="M0 0 C5.18568535 -0.47535449 5.18568535 -0.47535449 8 0 C10.3125 2.40625 10.3125 2.40625 12 5.5 C12.5775 6.5209375 13.155 7.541875 13.75 8.59375 C14.1625 9.3878125 14.575 10.181875 15 11 C15.49628906 10.2059375 15.99257812 9.411875 16.50390625 8.59375 C17.18324219 7.5728125 17.86257812 6.551875 18.5625 5.5 C19.22378906 4.4790625 19.88507813 3.458125 20.56640625 2.40625 C23 0 23 0 30 0 C30 9.9 30 19.8 30 30 C28.02 30 26.04 30 24 30 C23.67 24.06 23.34 18.12 23 12 C20.69 15.63 18.38 19.26 16 23 C12 19 12 19 8 13 C7.67 18.61 7.34 24.22 7 30 C5.02 30 3.04 30 1 30 C0 29 0 29 -0.11352539 26.22436523 C-0.10828857 25.01466064 -0.10305176 23.80495605 -0.09765625 22.55859375 C-0.09443359 21.25341797 -0.09121094 19.94824219 -0.08789062 18.60351562 C-0.07953401 17.2148431 -0.07106905 15.82617123 -0.0625 14.4375 C-0.05748666 13.04492344 -0.05292347 11.65234519 -0.04882812 10.25976562 C-0.03699434 6.8398013 -0.0205088 3.41992156 0 0 Z " fill="#F4FBF7" transform="translate(98,113)"/>
<path d="M0 0 C7.09134167 3.19805605 11.04914821 10.24507163 13.875 17.25 C14.85914454 20.53048181 15.10375666 22.65672978 15 26 C5.71547167 26.38745327 -1.88170192 26.22675314 -9.875 21.1875 C-13.19347082 17.77142709 -14.79499681 14.67419269 -15.375 9.9375 C-14.94283893 6.55223826 -14.03881199 4.71841599 -12 2 C-7.93714263 -0.70857158 -4.76746239 -0.63074674 0 0 Z " fill="#F8FCFA" transform="translate(119,60)"/>
<path d="M0 0 C2.701875 -0.061875 5.40375 -0.12375 8.1875 -0.1875 C9.02949951 -0.21481201 9.87149902 -0.24212402 10.73901367 -0.27026367 C15.32319574 -0.32093869 18.29360873 0.00557089 22 3 C24.46406448 6.69609672 24.67864807 9.71027391 24 14 C22.22116957 17.03059999 20.77090989 18.55030256 17.75 20.3125 C14.06432532 21.23391867 10.79605497 21.12867983 7 21 C7 23.97 7 26.94 7 30 C4.69 30 2.38 30 0 30 C0 20.1 0 10.2 0 0 Z " fill="#F1FAF5" transform="translate(20,113)"/>
<path d="M0 0 C1.15113281 -0.03738281 2.30226562 -0.07476562 3.48828125 -0.11328125 C7.29356699 0.39316093 8.3627356 1.33613892 10.6875 4.3125 C12.34247356 7.62244713 11.78834335 11.30373 11.75 14.9375 C11.74548828 15.73929688 11.74097656 16.54109375 11.73632812 17.3671875 C11.72453168 19.34899006 11.70659605 21.33075433 11.6875 23.3125 C8.35416667 23.3125 5.02083333 23.3125 1.6875 23.3125 C0.553125 23.374375 -0.58125 23.43625 -1.75 23.5 C-5.3125 23.3125 -5.3125 23.3125 -7.75 22.3125 C-9.85882462 19.61320449 -9.75243297 17.59710752 -9.74609375 14.25 C-9.17088081 11.67967911 -8.48170403 10.80962159 -6.3125 9.3125 C-3.61328125 9.01953125 -3.61328125 9.01953125 -0.625 9.125 C0.36886719 9.15207031 1.36273438 9.17914063 2.38671875 9.20703125 C3.52560547 9.25923828 3.52560547 9.25923828 4.6875 9.3125 C4.0275 8.3225 3.3675 7.3325 2.6875 6.3125 C0.48024927 5.94887182 0.48024927 5.94887182 -1.9375 6.125 C-2.75476563 6.15207031 -3.57203125 6.17914063 -4.4140625 6.20703125 C-5.35378906 6.25923828 -5.35378906 6.25923828 -6.3125 6.3125 C-6.69468767 4.65635343 -7.02645102 2.98792976 -7.3125 1.3125 C-5.44664046 -0.55335954 -2.50013629 0.05283937 0 0 Z " fill="#EFF9F4" transform="translate(193.3125,119.6875)"/>
<path d="M0 0 C1.15113281 -0.03738281 2.30226563 -0.07476562 3.48828125 -0.11328125 C7.29356699 0.39316093 8.3627356 1.33613892 10.6875 4.3125 C12.34247356 7.62244713 11.78834335 11.30373 11.75 14.9375 C11.74548828 15.73929688 11.74097656 16.54109375 11.73632812 17.3671875 C11.72453168 19.34899006 11.70659605 21.33075433 11.6875 23.3125 C8.35416667 23.3125 5.02083333 23.3125 1.6875 23.3125 C0.553125 23.374375 -0.58125 23.43625 -1.75 23.5 C-5.3125 23.3125 -5.3125 23.3125 -7.75 22.3125 C-9.85513621 19.61792565 -9.79310651 17.59247052 -9.84375 14.25 C-9.3125 12.3125 -9.3125 12.3125 -7.609375 10.57421875 C-4.86306514 9.06561656 -3.17244809 9.00223889 -0.0625 9.125 C1.27554688 9.16560547 1.27554688 9.16560547 2.640625 9.20703125 C3.31609375 9.24183594 3.9915625 9.27664062 4.6875 9.3125 C4.0275 8.3225 3.3675 7.3325 2.6875 6.3125 C0.48024927 5.94887182 0.48024927 5.94887182 -1.9375 6.125 C-2.75476562 6.15207031 -3.57203125 6.17914063 -4.4140625 6.20703125 C-5.35378906 6.25923828 -5.35378906 6.25923828 -6.3125 6.3125 C-6.69468767 4.65635343 -7.02645102 2.98792976 -7.3125 1.3125 C-5.44664046 -0.55335954 -2.50013629 0.05283937 0 0 Z " fill="#EFF9F4" transform="translate(56.3125,119.6875)"/>
<path d="M0 0 C1.55654297 -0.07347656 1.55654297 -0.07347656 3.14453125 -0.1484375 C6.1875 0.375 6.1875 0.375 9.0546875 2.31640625 C11.99242745 6.52931903 11.75644176 9.68885834 11.5 14.6875 C11.47744141 15.52345703 11.45488281 16.35941406 11.43164062 17.22070312 C11.3730061 19.27291149 11.28333215 21.32419202 11.1875 23.375 C9.2075 23.375 7.2275 23.375 5.1875 23.375 C5.1875 22.715 5.1875 22.055 5.1875 21.375 C4.671875 21.705 4.15625 22.035 3.625 22.375 C0.27347404 23.74998501 -2.22215387 23.75967994 -5.8125 23.375 C-8.25 21.75 -8.25 21.75 -9.8125 19.375 C-10.39588557 15.87468658 -10.21705522 14.10705231 -8.5 11 C-4.20156162 8.40094424 0.28882815 9.07094451 5.1875 9.375 C4.5275 8.385 3.8675 7.395 3.1875 6.375 C0.75056689 6.01083953 0.75056689 6.01083953 -1.9375 6.1875 C-2.84757813 6.21457031 -3.75765625 6.24164063 -4.6953125 6.26953125 C-5.39398438 6.30433594 -6.09265625 6.33914062 -6.8125 6.375 C-7.1425 4.725 -7.4725 3.075 -7.8125 1.375 C-5.14693537 0.04221768 -2.97603002 0.0954091 0 0 Z " fill="#F4FBF8" transform="translate(143.8125,119.625)"/>
<path d="M0 0 C2.31 0 4.62 0 7 0 C8.65 3.96 10.3 7.92 12 12 C13.32 8.04 14.64 4.08 16 0 C18.31 0 20.62 0 23 0 C21.28766971 6.2485035 19.22486156 12.35593654 17 18.4375 C16.62657471 19.48454102 16.62657471 19.48454102 16.24560547 20.55273438 C13.77267363 27.20552023 13.77267363 27.20552023 11 29 C8.73828125 29.29296875 8.73828125 29.29296875 6.3125 29.1875 C5.50425781 29.16042969 4.69601563 29.13335937 3.86328125 29.10546875 C3.24839844 29.07066406 2.63351563 29.03585938 2 29 C2.33 27.35 2.66 25.7 3 24 C4.65 24 6.3 24 8 24 C7.79318604 23.41508789 7.58637207 22.83017578 7.37329102 22.22753906 C6.43447832 19.56901976 5.49846202 16.90952418 4.5625 14.25 C4.23701172 13.32960937 3.91152344 12.40921875 3.57617188 11.4609375 C3.26357422 10.57148438 2.95097656 9.68203125 2.62890625 8.765625 C2.34088135 7.94868164 2.05285645 7.13173828 1.75610352 6.29003906 C1.0682414 4.20668527 0.49953082 2.13533347 0 0 Z " fill="#F4FBF8" transform="translate(158,120)"/>
<path d="M0 0 C2.31 0 4.62 0 7 0 C8.32 3.96 9.64 7.92 11 12 C12.65 8.04 14.3 4.08 16 0 C18.31 0 20.62 0 23 0 C14.96177062 25.03822938 14.96177062 25.03822938 11 29 C8.8359375 29.1953125 8.8359375 29.1953125 6.375 29.125 C5.55773437 29.10695312 4.74046875 29.08890625 3.8984375 29.0703125 C3.27195312 29.04710937 2.64546875 29.02390625 2 29 C1.67 28.34 1.34 27.68 1 27 C1.66 26.01 2.32 25.02 3 24 C5.625 23.8125 5.625 23.8125 8 24 C7.63648437 23.06933716 7.63648437 23.06933716 7.265625 22.11987305 C6.17187037 19.31107961 5.08585681 16.49935556 4 13.6875 C3.6184375 12.71103516 3.236875 11.73457031 2.84375 10.72851562 C2.4828125 9.79072266 2.121875 8.85292969 1.75 7.88671875 C1.41484375 7.02264404 1.0796875 6.15856934 0.734375 5.26831055 C0 3 0 3 0 0 Z " fill="#F4FBF8" transform="translate(71,120)"/>
<path d="M0 0 C6.0546875 -0.1953125 6.0546875 -0.1953125 8 0 C10 2 10 2 10.3125 4.5 C10.1578125 5.7375 10.1578125 5.7375 10 7 C6.3558226 9.4294516 4.28758728 9.16179575 0 9 C0 6.03 0 3.06 0 0 Z " fill="#09B464" transform="translate(27,119)"/>
<path d="M0 0 C2.05078125 0.03255208 4.1015625 0.06510417 6.15234375 0.09765625 C5.27734375 3.97265625 5.27734375 3.97265625 4.15234375 5.09765625 C2.15276011 5.13846408 0.15189121 5.14019981 -1.84765625 5.09765625 C-2.41015625 3.16015625 -2.41015625 3.16015625 -2.84765625 1.09765625 C-1.84765625 0.09765625 -1.84765625 0.09765625 0 0 Z " fill="#12B669" transform="translate(142.84765625,132.90234375)"/>
<path d="M0 0 C2.64 0 5.28 0 8 0 C8.66 1.32 9.32 2.64 10 4 C6.37 4 2.74 4 -1 4 C-0.67 2.68 -0.34 1.36 0 0 Z " fill="#24BB73" transform="translate(139,125)"/>
<path d="M0 0 C0.33 0 0.66 0 1 0 C1.08636719 0.66386719 1.17273438 1.32773438 1.26171875 2.01171875 C2.21825737 8.02299359 3.18149408 11.19591638 8 15 C7.67 15.99 7.34 16.98 7 18 C2.38473432 13.75894505 -0.76603107 10.10008835 -1.25 3.6875 C-1 1 -1 1 0 0 Z " fill="#12B667" transform="translate(103,66)"/>
<path d="M0 0 C1.134375 0.020625 2.26875 0.04125 3.4375 0.0625 C3.1075 1.7125 2.7775 3.3625 2.4375 5.0625 C0.4575 5.0625 -1.5225 5.0625 -3.5625 5.0625 C-4.125 3.125 -4.125 3.125 -4.5625 1.0625 C-3.5625 0.0625 -3.5625 0.0625 0 0 Z " fill="#05B361" transform="translate(194.5625,132.9375)"/>
<path d="M0 0 C1.134375 0.020625 2.26875 0.04125 3.4375 0.0625 C3.1075 1.7125 2.7775 3.3625 2.4375 5.0625 C0.4575 5.0625 -1.5225 5.0625 -3.5625 5.0625 C-4.125 3.125 -4.125 3.125 -4.5625 1.0625 C-3.5625 0.0625 -3.5625 0.0625 0 0 Z " fill="#06B362" transform="translate(57.5625,132.9375)"/>
<path d="M0 0 C2.31 0 4.62 0 7 0 C7.66 1.32 8.32 2.64 9 4 C6.03 3.67 3.06 3.34 0 3 C0 2.01 0 1.02 0 0 Z " fill="#0EB566" transform="translate(189,125)"/>
<path d="M0 0 C2.31 0 4.62 0 7 0 C7.66 1.32 8.32 2.64 9 4 C6.03 3.67 3.06 3.34 0 3 C0 2.01 0 1.02 0 0 Z " fill="#0EB566" transform="translate(52,125)"/>
<path d="M0 0 C2 0 2 0 4.125 2 C4.74375 2.66 5.3625 3.32 6 4 C5.67 4.99 5.34 5.98 5 7 C3.29115995 5.37660195 1.62553283 3.70680947 0 2 C0 1.34 0 0.68 0 0 Z " fill="#21B96D" transform="translate(105,77)"/>
</svg>
