<?xml version="1.0" encoding="UTF-8"?>
<svg version="1.1" xmlns="http://www.w3.org/2000/svg" width="225" height="225">
<path d="M0 0 C74.25 0 148.5 0 225 0 C225 74.25 225 148.5 225 225 C150.75 225 76.5 225 0 225 C0 150.75 0 76.5 0 0 Z " fill="#F6F8FA" transform="translate(0,0)"/>
<path d="M0 0 C0.97564407 -0.00945648 1.95128815 -0.01891296 2.95649719 -0.02865601 C4.01265732 -0.02258331 5.06881744 -0.01651062 6.15698242 -0.01025391 C7.25153244 -0.01312408 8.34608246 -0.01599426 9.47380066 -0.01895142 C11.79813146 -0.02099569 14.12247932 -0.01544057 16.44677734 -0.00292969 C19.96061137 0.01294933 23.47326513 -0.00267832 26.98706055 -0.02197266 C59.56482479 -0.05333009 59.56482479 -0.05333009 69.94213867 10.09130859 C75.11727839 15.78643843 76.51678483 20.49044629 76.32495117 28.20068359 C76.31592773 28.89355469 76.3069043 29.58642578 76.29760742 30.30029297 C76.27421274 31.99640755 76.23834758 33.6923423 76.19995117 35.38818359 C76.97983398 35.66146484 77.7597168 35.93474609 78.56323242 36.21630859 C82.96292389 38.17172702 84.48622934 41.85368166 86.44995117 46.07568359 C89.08426723 57.71057951 86.18612594 69.5131071 80.44995117 79.82568359 C74.62104834 88.70018816 67.10275865 93.47790231 56.84057617 95.95849609 C52.41319482 96.67892797 47.95089086 96.8395682 43.47729492 97.10693359 C40.90047867 97.32806681 38.66389785 97.65084294 36.19995117 98.38818359 C36.07491211 99.44263672 35.94987305 100.49708984 35.82104492 101.58349609 C35.07999106 107.49369369 34.17654301 113.37765545 33.26245117 119.26318359 C33.00818359 120.97248047 33.00818359 120.97248047 32.7487793 122.71630859 C32.49451172 124.34439453 32.49451172 124.34439453 32.23510742 126.00537109 C32.0089978 127.48432861 32.0089978 127.48432861 31.77832031 128.99316406 C31.19995117 131.38818359 31.19995117 131.38818359 29.19995117 133.38818359 C26.49438477 133.61523438 26.49438477 133.61523438 23.09838867 133.58349609 C21.88666992 133.57705078 20.67495117 133.57060547 19.42651367 133.56396484 C18.15549805 133.54720703 16.88448242 133.53044922 15.57495117 133.51318359 C14.29620117 133.50416016 13.01745117 133.49513672 11.69995117 133.48583984 C8.5330995 133.46220662 5.36661693 133.42925988 2.19995117 133.38818359 C2.11627649 128.53505227 2.32789607 124.18105336 3.19995117 119.38818359 C2.42280762 119.39342041 1.64566406 119.39865723 0.8449707 119.40405273 C-2.66169431 119.42478515 -6.16834646 119.4378318 -9.67504883 119.45068359 C-10.89836914 119.4590625 -12.12168945 119.46744141 -13.38208008 119.47607422 C-14.54868164 119.47929687 -15.7152832 119.48251953 -16.91723633 119.48583984 C-18.5354126 119.49369507 -18.5354126 119.49369507 -20.1862793 119.50170898 C-22.80004883 119.38818359 -22.80004883 119.38818359 -24.80004883 118.38818359 C-24.96889011 111.67205246 -24.54519508 105.31275229 -23.47973633 98.68505859 C-23.34063339 97.78095749 -23.20153046 96.87685638 -23.05821228 95.94535828 C-22.60446672 93.00844365 -22.14000357 90.07334265 -21.67504883 87.13818359 C-21.35504502 85.08497088 -21.03563508 83.03166553 -20.71679688 80.97827148 C-20.06680999 76.80121924 -19.4121887 72.62493301 -18.75366211 68.44921875 C-17.87122933 62.8511505 -17.00398674 57.25082504 -16.13989258 51.64990234 C-14.0775648 38.31658432 -12.00947403 24.97858914 -9.61254883 11.70068359 C-9.46986572 10.86915771 -9.32718262 10.03763184 -9.18017578 9.1809082 C-7.99243949 2.88720805 -6.66161991 0.01855027 0 0 Z " fill="#013089" transform="translate(81.800048828125,51.61181640625)"/>
<path d="M0 0 C3.5045275 0.97347986 4.88857413 1.85992177 7.1875 4.75 C12.25044638 13.82838661 11.96179696 22.1572233 9.375 32.0625 C6.29013446 41.92112623 1.76643766 50.18663041 -7 56 C-15.45936066 60.23613786 -23.36590602 61.15954187 -32.72265625 61.71875 C-35.2994725 61.93988322 -37.53605333 62.26265935 -40 63 C-40.12503906 64.05445313 -40.25007813 65.10890625 -40.37890625 66.1953125 C-41.11996011 72.1055101 -42.02340816 77.98947186 -42.9375 83.875 C-43.19176758 85.58429688 -43.19176758 85.58429688 -43.45117188 87.328125 C-43.70543945 88.95621094 -43.70543945 88.95621094 -43.96484375 90.6171875 C-44.19095337 92.09614502 -44.19095337 92.09614502 -44.42163086 93.60498047 C-45 96 -45 96 -47 98 C-49.70556641 98.22705078 -49.70556641 98.22705078 -53.1015625 98.1953125 C-54.31328125 98.18886719 -55.525 98.18242187 -56.7734375 98.17578125 C-58.04445312 98.15902344 -59.31546875 98.14226562 -60.625 98.125 C-61.90375 98.11597656 -63.1825 98.10695313 -64.5 98.09765625 C-67.66685167 98.07402303 -70.83333424 98.04107629 -74 98 C-74.0861953 93.00067249 -73.8372965 89.02377899 -73 84 C-81.58 84 -90.16 84 -99 84 C-99 83.67 -99 83.34 -99 83 C-90.09 83 -81.18 83 -72 83 C-71.9175 81.205625 -71.835 79.41125 -71.75 77.5625 C-71.21390205 70.31028602 -70.29961779 63.13257801 -69.25 55.9375 C-69.10530273 54.8431665 -68.96060547 53.74883301 -68.81152344 52.62133789 C-68.12338934 48.12796123 -67.42719104 44.71372161 -65.078125 40.7890625 C-60.34752843 38.03955332 -55.87347614 38.38931662 -50.5 38.4375 C-41.24158151 38.29136548 -33.59368361 37.67925292 -25 34 C-24.23945313 33.7009375 -23.47890625 33.401875 -22.6953125 33.09375 C-12.00313001 28.41339842 -7.44687549 19.20368328 -3 9 C-1.86390637 6.01323794 -0.89951308 3.06892699 0 0 Z " fill="#049ADC" transform="translate(158,87)"/>
<path d="M0 0 C0.73531952 0.00142502 1.47063904 0.00285004 2.22824097 0.00431824 C3.06316071 0.00124161 3.89808044 -0.00183502 4.75830078 -0.00500488 C5.66345428 0.00218063 6.56860779 0.00936615 7.50119019 0.01676941 C8.43381683 0.01722763 9.36644348 0.01768585 10.32733154 0.01815796 C12.30619575 0.02118381 14.2850575 0.02907998 16.2638855 0.04142761 C19.2727619 0.05953883 22.28132777 0.06193824 25.29025269 0.06169128 C27.21473448 0.06661239 29.13921421 0.07244327 31.06369019 0.07926941 C31.9566983 0.08038223 32.84970642 0.08149506 33.76977539 0.0826416 C49.86693818 0.20291987 49.86693818 0.20291987 54.18087769 4.24723816 C55.8250148 11.81026888 51.54691605 20.2016458 47.79415894 26.61833191 C46.3627568 28.63013819 44.85915123 30.43710027 43.18087769 32.24723816 C42.61884644 32.86212097 42.05681519 33.47700378 41.47775269 34.11051941 C33.36988863 42.06508351 21.9442257 45.39777535 10.78634644 45.34489441 C9.58429565 45.34167175 8.38224487 45.3384491 7.14376831 45.33512878 C5.8978894 45.32674988 4.6520105 45.31837097 3.36837769 45.30973816 C2.10316284 45.30522644 0.837948 45.30071472 -0.46560669 45.29606628 C-3.58349342 45.28430067 -6.70128365 45.26786088 -9.81912231 45.24723816 C-9.3261112 36.34795508 -8.45216298 27.53187299 -7.38162231 18.68473816 C-7.25940308 17.63801941 -7.13718384 16.59130066 -7.01126099 15.51286316 C-6.88726929 14.51641785 -6.76327759 13.51997253 -6.63552856 12.49333191 C-6.52668335 11.60315369 -6.41783813 10.71297546 -6.30569458 9.79582214 C-4.55364675 0.61888925 -4.55364675 0.61888925 0 0 Z " fill="#01226A" transform="translate(102.81912231445313,80.75276184082031)"/>
<path d="M0 0 C1.0046933 -0.0030011 2.0093866 -0.0060022 3.04452515 -0.00909424 C4.12891876 0.00325256 5.21331238 0.01559937 6.33056641 0.02832031 C8.00440903 0.03113007 8.00440903 0.03113007 9.71206665 0.03399658 C12.07418806 0.04072339 14.43629821 0.05465024 16.79833984 0.07519531 C20.41075012 0.10626146 24.02272347 0.11615782 27.63525391 0.12207031 C29.92953005 0.13124413 32.22380175 0.1416211 34.51806641 0.15332031 C36.13858414 0.15969513 36.13858414 0.15969513 37.7918396 0.16619873 C38.80283722 0.17580627 39.81383484 0.18541382 40.85546875 0.1953125 C41.7413266 0.2021405 42.62718445 0.20896851 43.53988647 0.21600342 C46.12759573 0.3603768 48.53156182 0.78752205 51.05712891 1.35644531 C51.05712891 1.68644531 51.05712891 2.01644531 51.05712891 2.35644531 C32.57712891 2.68644531 14.09712891 3.01644531 -4.94287109 3.35644531 C-5.93287109 6.32644531 -6.92287109 9.29644531 -7.94287109 12.35644531 C-8.27287109 12.35644531 -8.60287109 12.35644531 -8.94287109 12.35644531 C-8.85540825 10.91783237 -8.74721762 9.48047023 -8.63037109 8.04394531 C-8.57236328 7.2434375 -8.51435547 6.44292969 -8.45458984 5.61816406 C-7.36334088 0.79501022 -4.61440729 -0.01902415 0 0 Z " fill="#2A478D" transform="translate(81.94287109375,51.6435546875)"/>
<path d="M0 0 C1.32 0 2.64 0 4 0 C3.22602467 6.70778622 2.14231412 13.34574301 1 20 C0.01 20 -0.98 20 -2 20 C-4.49310643 16.26034036 -4.0603261 14.70929359 -3.625 10.3125 C-3.51414062 9.13300781 -3.40328125 7.95351562 -3.2890625 6.73828125 C-3.19367188 5.83464844 -3.09828125 4.93101563 -3 4 C-2.34 4 -1.68 4 -1 4 C-0.67 2.68 -0.34 1.36 0 0 Z " fill="#F2F6F7" transform="translate(68,68)"/>
<path d="M0 0 C2.07477826 3.11216739 2.25522588 3.84060508 2.265625 7.37890625 C2.26820312 8.21744141 2.27078125 9.05597656 2.2734375 9.91992188 C2.26570313 10.79197266 2.25796875 11.66402344 2.25 12.5625 C2.25773437 13.43841797 2.26546875 14.31433594 2.2734375 15.21679688 C2.27085938 16.05404297 2.26828125 16.89128906 2.265625 17.75390625 C2.26336914 18.52033447 2.26111328 19.2867627 2.25878906 20.07641602 C2 22 2 22 0 24 C-0.99 24 -1.98 24 -3 24 C-2.68957083 21.12476286 -2.37672481 18.24982273 -2.0625 15.375 C-1.97548828 14.56675781 -1.88847656 13.75851563 -1.79882812 12.92578125 C-1.32290463 8.58958942 -0.77162811 4.29609164 0 0 Z " fill="#073088" transform="translate(68,88)"/>
<path d="M0 0 C1.19126781 3.57380342 0.7349445 5.50883302 0.0625 9.1875 C-0.13214844 10.27417969 -0.32679687 11.36085937 -0.52734375 12.48046875 C-0.68332031 13.31191406 -0.83929688 14.14335937 -1 15 C-1.99 14.67 -2.98 14.34 -4 14 C-5.4053516 9.56204759 -6.29241839 5.67869431 -6 1 C-5.67 1.66 -5.34 2.32 -5 3 C-3.02463255 2.65213292 -3.02463255 2.65213292 -1 2 C-0.67 1.34 -0.34 0.68 0 0 Z " fill="#E8EEF0" transform="translate(62,125)"/>
<path d="M0 0 C-0.495 0.61875 -0.99 1.2375 -1.5 1.875 C-3.19222773 3.83880904 -3.19222773 3.83880904 -3 6 C-7.62 5.34 -12.24 4.68 -17 4 C-17 3.67 -17 3.34 -17 3 C-14.92085336 2.29994051 -12.83648414 1.61537756 -10.75 0.9375 C-9.58984375 0.55464844 -8.4296875 0.17179688 -7.234375 -0.22265625 C-4.19922915 -0.95211763 -2.84296787 -1.11889082 0 0 Z " fill="#F2F8F6" transform="translate(153,144)"/>
<path d="M0 0 C0.66 0 1.32 0 2 0 C3.38226016 2.76452033 3.09525387 5.0461363 3.0625 8.125 C3.05347656 9.22070312 3.04445313 10.31640625 3.03515625 11.4453125 C3.02355469 12.28835937 3.01195313 13.13140625 3 14 C2.67 12.68 2.34 11.36 2 10 C1.01 10 0.02 10 -1 10 C-0.67 6.7 -0.34 3.4 0 0 Z " fill="#E2F1F6" transform="translate(116,158)"/>
<path d="M0 0 C3.03015519 4.54523279 1.39398564 8.89874323 0.4375 14 C0.2209375 14.99 0.2209375 14.99 0 16 C-0.66 16 -1.32 16 -2 16 C-1.34 10.72 -0.68 5.44 0 0 Z " fill="#264392" transform="translate(68,88)"/>
<path d="M0 0 C0.66 0 1.32 0 2 0 C5.62926746 5.51648654 5.01924246 9.78630501 4 16 C3.67 16 3.34 16 3 16 C2.855625 14.783125 2.71125 13.56625 2.5625 12.3125 C2.03083435 8.07415128 1.35394627 4.06183882 0 0 Z " fill="#092F81" transform="translate(152,64)"/>
<path d="M0 0 C3.91402949 1.26941497 5.79072873 2.51167694 8 6 C5.125 6.125 5.125 6.125 2 6 C1.34 5.34 0.68 4.68 0 4 C0 2.68 0 1.36 0 0 Z " fill="#092D82" transform="translate(144,57)"/>
<path d="M0 0 C0.33 0 0.66 0 1 0 C1 5.28 1 10.56 1 16 C0.67 15.01 0.34 14.02 0 13 C-0.66 12.67 -1.32 12.34 -2 12 C-1.85831863 10.56208484 -1.71148957 9.1246763 -1.5625 7.6875 C-1.48128906 6.88699219 -1.40007812 6.08648437 -1.31640625 5.26171875 C-1 3 -1 3 0 0 Z " fill="#15378A" transform="translate(157,72)"/>
<path d="M0 0 C1.32 0 2.64 0 4 0 C3.51171875 6.0546875 3.51171875 6.0546875 3 8 C2.01 8.66 1.02 9.32 0 10 C0.33 8.02 0.66 6.04 1 4 C0.34 4 -0.32 4 -1 4 C-0.67 2.68 -0.34 1.36 0 0 Z " fill="#D8E0E7" transform="translate(68,68)"/>
<path d="M0 0 C1.32 0 2.64 0 4 0 C8 5.11111111 8 5.11111111 8 8 C7.01 8.33 6.02 8.66 5 9 C1.125 2.25 1.125 2.25 0 0 Z " fill="#E3EBF3" transform="translate(151,61)"/>
<path d="M0 0 C3.2542015 2.83430453 4.5206753 4.68607774 5 9 C4.34 9 3.68 9 3 9 C2.01 9.495 2.01 9.495 1 10 C1 8.35 1 6.7 1 5 C0.34 4.67 -0.32 4.34 -1 4 C-0.34 3.67 0.32 3.34 1 3 C0.67 2.01 0.34 1.02 0 0 Z " fill="#169BD6" transform="translate(163,91)"/>
<path d="M0 0 C3 0 3 0 5 1 C5 1.66 5 2.32 5 3 C3.03533587 4.06775224 1.03144641 5.06553465 -1 6 C-1.66 5.67 -2.32 5.34 -3 5 C-3 4.01 -3 3.02 -3 2 C-2.01 2 -1.02 2 0 2 C0 1.34 0 0.68 0 0 Z " fill="#E7ECEF" transform="translate(75,49)"/>
<path d="M0 0 C0.33 0 0.66 0 1 0 C1.04254356 1.99954746 1.04080783 4.00041636 1 6 C0.67 6.33 0.34 6.66 0 7 C-0.36760731 9.32817964 -0.70241581 11.6618385 -1 14 C-1.66 14 -2.32 14 -3 14 C-2.58846263 9.02906176 -2.20399168 4.55491614 0 0 Z " fill="#1D3C8F" transform="translate(62,135)"/>
<path d="M0 0 C-2 2 -2 2 -4.3828125 2.1953125 C-5.28773437 2.17210938 -6.19265625 2.14890625 -7.125 2.125 C-8.49011719 2.09792969 -8.49011719 2.09792969 -9.8828125 2.0703125 C-10.58148438 2.04710938 -11.28015625 2.02390625 -12 2 C-8.40939861 -1.59060139 -4.69614193 -1.20757935 0 0 Z " fill="#0097D2" transform="translate(130,125)"/>
<path d="M0 0 C1.231394 3.69418201 0.64432764 6.2056261 0 10 C-0.99 9.67 -1.98 9.34 -3 9 C-2.5020163 5.26512223 -2.12508244 3.18762365 0 0 Z " fill="#0E97D9" transform="translate(116,155)"/>
<path d="M0 0 C4.62 0 9.24 0 14 0 C14.33 0.99 14.66 1.98 15 3 C13.68 3 12.36 3 11 3 C11 2.34 11 1.68 11 1 C7.37 1 3.74 1 0 1 C0 0.67 0 0.34 0 0 Z " fill="#D2E8F4" transform="translate(122,148)"/>
<path d="M0 0 C0.66 0.33 1.32 0.66 2 1 C0.71034824 2.37562854 -0.62689293 3.70766393 -2 5 C-2.66 5 -3.32 5 -4 5 C-4.33 6.32 -4.66 7.64 -5 9 C-5.33 7.35 -5.66 5.7 -6 4 C-5.01 4 -4.02 4 -3 4 C-3 3.01 -3 2.02 -3 1 C-2.01 0.67 -1.02 0.34 0 0 Z " fill="#1FA0DC" transform="translate(122,145)"/>
<path d="M0 0 C-0.33 0.99 -0.66 1.98 -1 3 C-3.97 2.67 -6.94 2.34 -10 2 C-10 1.67 -10 1.34 -10 1 C-8.71073008 0.63720544 -7.41846728 0.28503302 -6.125 -0.0625 C-5.40570313 -0.25972656 -4.68640625 -0.45695313 -3.9453125 -0.66015625 C-2 -1 -2 -1 0 0 Z " fill="#DDEFF6" transform="translate(146,146)"/>
<path d="M0 0 C0.99 0 1.98 0 3 0 C2.67 2.64 2.34 5.28 2 8 C1.34 8 0.68 8 0 8 C-0.38063221 5.6739143 -0.71269945 3.33944736 -1 1 C-0.67 0.67 -0.34 0.34 0 0 Z " fill="#E2EAED" transform="translate(67,80)"/>
<path d="M0 0 C-0.8125 1.9375 -0.8125 1.9375 -2 4 C-2.99 4.33 -3.98 4.66 -5 5 C-5.66 3.68 -6.32 2.36 -7 1 C-2.25 0 -2.25 0 0 0 Z " fill="#052873" transform="translate(143,114)"/>
<path d="M0 0 C2 1 2 1 3.1875 3.6875 C4.05786358 7.23590538 3.83820823 9.47952545 3 13 C2.67 13 2.34 13 2 13 C1.34 8.71 0.68 4.42 0 0 Z " fill="#0D3692" transform="translate(58,153)"/>
</svg>
