<?xml version="1.0" encoding="UTF-8"?>
<svg version="1.1" xmlns="http://www.w3.org/2000/svg" width="250" height="250">
<path d="M0 0 C82.5 0 165 0 250 0 C250 82.5 250 165 250 250 C167.5 250 85 250 0 250 C0 167.5 0 85 0 0 Z " fill="#335FFF" transform="translate(0,0)"/>
<path d="M0 0 C4.82683916 0.71228082 9.4839029 1.85403016 14.1875 3.125 C15.87612156 3.57619699 17.56493551 4.02667438 19.25390625 4.4765625 C20.16930176 4.72051758 21.08469727 4.96447266 22.02783203 5.21582031 C25.2325573 6.06135814 28.44171076 6.88812354 31.65234375 7.7109375 C42.15357988 10.40337249 52.63236762 13.1082206 63.01464844 16.23095703 C73.41462773 19.34687439 83.95443105 21.96224117 94.46875 24.66015625 C112.77113378 29.36495471 130.97524402 34.31501203 149 40 C145.90691337 54.18437273 142.28678795 68.20297154 138.23144531 82.14160156 C136.51994579 88.06501156 134.96201757 94.01044413 133.5 100 C131.60199272 107.77570725 129.46662103 115.45988611 127.23046875 123.14453125 C125.28385858 129.88279722 123.5595998 136.65868541 121.89672852 143.47167969 C120.16588625 150.49454627 118.19150324 157.43470643 116.17333984 164.37963867 C113.91052058 172.20491404 111.90421817 180.08069266 110 188 C101.89688988 186.80416657 94.10892238 184.71435367 86.24609375 182.48046875 C80.34599904 180.80493714 74.42391114 179.21391177 68.5 177.625 C67.397771 177.32891846 66.29554199 177.03283691 65.15991211 176.7277832 C62.89963906 176.12069924 60.63930332 175.51384862 58.37890625 174.90722656 C52.91847246 173.44111587 47.45928575 171.97037862 42 170.5 C39.83333962 169.91664331 37.66667295 169.33331 35.5 168.75 C22.49999999 165.25 22.49999999 165.25 19.24731445 164.37426758 C17.0896059 163.79335228 14.9318911 163.2124602 12.77416992 162.6315918 C7.22039156 161.13645675 1.666736 159.64086789 -3.88671875 158.14453125 C-15.25404162 155.0821055 -26.62207806 152.02284725 -38 149 C-39.63804767 144.97101319 -38.21785277 141.66854365 -36.9375 137.75 C-34.69804264 130.55582255 -32.78485763 123.3197075 -31 116 C-29.14625443 108.43884002 -27.16214915 100.95828335 -24.89453125 93.51171875 C-23.05709254 87.39082418 -21.52246517 81.20578441 -20 75 C-18.31138796 68.11697733 -16.5644615 61.28025762 -14.5 54.5 C-12.13525384 46.72589699 -10.18136372 38.86704199 -8.24145508 30.97753906 C-6.29813575 23.10347372 -4.19145024 15.28701802 -1.98046875 7.484375 C-1.28004664 4.99522552 -0.60255273 2.51387589 0 0 Z " fill="#FDFEFF" transform="translate(70,31)"/>
<path d="M0 0 C4.72907519 0.60089901 9.21613459 1.49128714 13.8125 2.75 C14.44051514 2.92120361 15.06853027 3.09240723 15.71557617 3.26879883 C17.07657112 3.64085388 18.43698627 4.01503503 19.796875 4.39111328 C22.16531768 5.04568953 24.53571973 5.69287105 26.90625 6.33984375 C28.54178201 6.78864239 30.17720069 7.23785423 31.8125 7.6875 C32.59536377 7.90180664 33.37822754 8.11611328 34.18481445 8.33691406 C39.76797746 9.88398873 39.76797746 9.88398873 42 11 C40.16594163 19.38196852 38.08696602 27.69417582 35.9375 36 C35.6801709 37.00297119 35.4228418 38.00594238 35.15771484 39.03930664 C34.90844238 39.99571045 34.65916992 40.95211426 34.40234375 41.9375 C34.18054443 42.79214844 33.95874512 43.64679688 33.73022461 44.52734375 C32.97192303 47.09507308 32.03168909 49.53079282 31 52 C22.378318 50.32274446 13.91025897 48.24163101 5.4375 45.9375 C4.48601074 45.6801709 3.53452148 45.4228418 2.55419922 45.15771484 C1.64814941 44.90844238 0.74209961 44.65916992 -0.19140625 44.40234375 C-0.99779541 44.18054443 -1.80418457 43.95874512 -2.63500977 43.73022461 C-5.15389029 42.95248417 -7.56583455 42.00970988 -10 41 C-8.86955955 32.67761948 -6.58740477 24.73506169 -4.20849609 16.70239258 C-2.57765618 11.16796846 -1.19108945 5.64622212 0 0 Z " fill="#3560FF" transform="translate(109,99)"/>
</svg>
